<svg xmlns="http://www.w3.org/2000/svg" viewBox="0 0 44.31 31.12"><defs><style>.cls-1{fill:#231f20;}.cls-2{fill:#c3996c;}.cls-3{fill:#fff;}.cls-4{fill:#c49a6c;}</style></defs><title>Asset 1</title><g id="Layer_2" data-name="Layer 2"><g id="Layer_1-2" data-name="Layer 1"><path class="cls-1" d="M0,30.63,4.79.48H19.26l-2,12.36h2.22L16.68,30.63Zm4.5-4.05h8.65l1.64-9.95H6.1ZM8.1,4.22,6.71,12.84h6.44l1.39-8.62Z"/><path class="cls-2" d="M2.37,30.63,7.15.48H21.62L19.67,12.84h2.21L19.05,30.63Zm4.5-4.05h8.65l1.63-9.95H8.47Zm3.6-22.36L9.08,12.84h6.44L16.9,4.22Z"/><polyline class="cls-3" points="7.35 30.63 12.14 0 14.39 0.35 9.64 30.67"/><path class="cls-1" d="M22.43,30.63,27.22.48H41.68l-2,12.36H42L39.11,30.63Zm4.5-4.05h8.65l1.63-9.95H28.53Zm3.6-22.36-1.39,8.62h6.44L37,4.22Z"/><path class="cls-4" d="M24.79,30.63,29.58.48H44.05L42.1,12.84h2.21L41.48,30.63Zm4.51-4.05H38l1.63-9.95H30.9ZM32.9,4.22l-1.39,8.62H38l1.38-8.62Z"/><rect class="cls-3" x="32.15" width="2.27" height="31.14" transform="translate(2.81 -4.96) rotate(8.9)"/></g></g></svg>
